<?xml version="1.0" encoding="UTF-8" standalone="no"?><!DOCTYPE svg PUBLIC "-//W3C//DTD SVG 1.1//EN" "http://www.w3.org/Graphics/SVG/1.1/DTD/svg11.dtd"><svg width="100%" height="100%" viewBox="0 0 400 400" version="1.1" xmlns="http://www.w3.org/2000/svg" xmlns:xlink="http://www.w3.org/1999/xlink" xml:space="preserve" xmlns:serif="http://www.serif.com/" style="fill-rule:evenodd;clip-rule:evenodd;stroke-linecap:round;stroke-linejoin:round;stroke-miterlimit:1.5;"><g id="Layer1"><path d="M205.497,36.451l-23.261,57.874l-58.011,24.923l4.605,39.258l41.22,-15.277l35.273,36.583l0.174,-143.361Z" style="fill:#4caf50;"/><path d="M205.378,173.341l-36.221,-23.105l-43.637,2.784l-9.714,-12.406l-12.977,3.868l-35.249,28.859l-9.592,43.774l2.161,22.932l-1.137,20.915l25.332,56.473l57.893,27.114l62.286,16.542l0.855,-187.75Z" style="fill:#ff3d00;stroke:#ffaf35;stroke-opacity:0;stroke-width:4.17px;"/></g><path d="M278.962,120.305c-10.256,-23.63 -37.234,-27.872 -53.897,-28.51c0.326,-11.06 2.23,-19.141 13.005,-26.611c2.251,-1.553 3.598,-4.119 3.598,-6.853c0,-2.21 -0.879,-4.33 -2.443,-5.891l-16.666,-16.667c-2.074,-2.066 -5.087,-2.899 -7.927,-2.19c-35.417,8.92 -39.176,34.847 -39.583,58.203c-16.644,0.625 -43.723,4.834 -54.006,28.511c-43.835,24.25 -71.043,67.199 -71.043,113.036c0,73.52 67.285,133.334 150,133.334c82.715,0 150,-59.817 150,-133.334c0,-45.836 -27.212,-88.791 -71.038,-113.028Zm-145.629,21.362c0,-17.31 6.055,-33.334 50,-33.334c0.002,0 0.004,0 0.005,0c4.569,0 8.329,-3.759 8.329,-8.328c0,-0.002 0,-0.003 0,-0.005c0,-25.292 1.155,-41.675 22.591,-48.95l6.738,6.722c-12.826,10.003 -12.663,30.02 -12.663,42.228c0,0.002 0,0.003 0,0.005c0,4.569 3.76,8.328 8.329,8.328c0.001,0 0.003,0 0.005,0c43.945,0 50,16.024 50,33.334l0,7.739c-14.063,-1.961 -28.988,-8.699 -34.131,-19.621c-1.372,-2.914 -4.317,-4.783 -7.538,-4.783c-4.57,0 -8.331,3.761 -8.331,8.331c0,21.167 -13.395,32.797 -16.488,33.342c-3.451,-0.547 -16.846,-12.175 -16.846,-33.342c0,-3.838 -2.649,-7.204 -6.38,-8.105c-0.64,-0.152 -1.295,-0.229 -1.953,-0.228c-3.127,0.001 -6.001,1.763 -7.422,4.549c-6.185,12.108 -21.696,17.993 -34.245,19.806l0,-7.688Zm66.667,208.333c-73.519,0 -133.333,-52.338 -133.333,-116.667c0,-35.91 18.425,-68.856 50,-90.875l0,15.88c0,4.569 3.759,8.329 8.328,8.329c0.002,0 0.003,0 0.005,0c16.013,0.011 31.627,-5.044 44.596,-14.437c6.039,18.788 20.118,31.103 30.404,31.103c10.237,0 24.25,-12.215 30.322,-30.875c13.027,9.313 28.665,14.286 44.678,14.209c0.002,0 0.003,0 0.005,0c4.569,0 8.328,-3.76 8.328,-8.329l0,-15.892c31.575,22.022 50,54.974 50,90.887c0,64.329 -59.814,116.667 -133.333,116.667Z" style="fill-rule:nonzero;"/></svg>